<svg xmlns="http://www.w3.org/2000/svg" viewBox="0 0 200 200" role="img" aria-label="Apple iTunes">
  <defs>
    <linearGradient id="g-apple-itunes" x1="0" y1="0" x2="1" y2="1">
      <stop offset="0%" stop-color="#0F172A"/>
      <stop offset="100%" stop-color="#0F172A" stop-opacity="0.85"/>
    </linearGradient>
    <pattern id="p-apple-itunes" width="14" height="14" patternUnits="userSpaceOnUse">
      <circle cx="2" cy="2" r="0.7" fill="#F1F5F9" opacity="0.06"/>
    </pattern>
  </defs>
  <rect width="200" height="200" rx="16" fill="url(#g-apple-itunes)"/>
  <rect width="200" height="200" rx="16" fill="url(#p-apple-itunes)"/>
  <rect x="8" y="8" width="184" height="184" rx="12" fill="none" stroke="#F1F5F9" stroke-width="0.5" opacity="0.18"/>
  <g transform="translate(100 96)">
    <g fill="#F1F5F9" stroke="none">
      <path d="M0 -28 q-2 -8 -10 -8 q-4 0 -10 4 q-8 6 -8 18 q0 16 12 30 q4 4 8 4 q4 0 8 -2 q4 2 8 2 q4 0 8 -4 q12 -14 12 -30 q0 -12 -8 -18 q-6 -4 -10 -4 q-8 0 -10 8z"/>
      <path d="M4 -34 q4 0 8 -4 q4 -4 4 -8 q-6 0 -10 4 q-4 4 -2 8z"/>
    </g></g>
  <g transform="translate(0 200)">
    <rect x="0" y="-32" width="200" height="32" fill="#F1F5F9" opacity="0.06"/>
    <text x="14" y="-12" font-family="'IBM Plex Mono','Courier New',monospace" font-size="9" fill="#F1F5F9" opacity="0.85" letter-spacing="2">APPLE ITUNES</text>
    <text x="186" y="-12" font-family="'Tajawal','Helvetica',sans-serif" font-size="11" font-weight="600" fill="#F1F5F9" opacity="0.95" text-anchor="end">آبل أيتونز</text>
  </g>
  <text x="14" y="22" font-family="'IBM Plex Mono','Courier New',monospace" font-size="7" fill="#FB7185" opacity="0.75" letter-spacing="1.5">NG · GIFT</text>
</svg>
