<svg xmlns="http://www.w3.org/2000/svg" viewBox="0 0 200 200" role="img" aria-label="Free Fire">
  <defs>
    <linearGradient id="g-free-fire" x1="0" y1="0" x2="1" y2="1">
      <stop offset="0%" stop-color="#FF4D00"/>
      <stop offset="100%" stop-color="#FF4D00" stop-opacity="0.85"/>
    </linearGradient>
    <pattern id="p-free-fire" width="14" height="14" patternUnits="userSpaceOnUse">
      <circle cx="2" cy="2" r="0.7" fill="#FFFFFF" opacity="0.06"/>
    </pattern>
  </defs>
  <rect width="200" height="200" rx="16" fill="url(#g-free-fire)"/>
  <rect width="200" height="200" rx="16" fill="url(#p-free-fire)"/>
  <rect x="8" y="8" width="184" height="184" rx="12" fill="none" stroke="#FFFFFF" stroke-width="0.5" opacity="0.18"/>
  <g transform="translate(100 96)">
    <g fill="#FFD700" stroke="none">
      <path d="M0 -36 q-12 16 -12 28 q0 14 12 22 q12 -8 12 -22 q0 -12 -12 -28 z"/>
      <path d="M0 -18 q-6 10 -6 18 q0 8 6 12 q6 -4 6 -12 q0 -8 -6 -18 z" fill="#FF4D00"/>
    </g>
    <text x="0" y="40" font-family="'Chakra Petch','Helvetica',sans-serif" font-size="11" font-weight="700" fill="#FFFFFF" text-anchor="middle" letter-spacing="2">FREEFIRE</text></g>
  <g transform="translate(0 200)">
    <rect x="0" y="-32" width="200" height="32" fill="#FFFFFF" opacity="0.06"/>
    <text x="14" y="-12" font-family="'IBM Plex Mono','Courier New',monospace" font-size="9" fill="#FFFFFF" opacity="0.85" letter-spacing="2">FREE FIRE</text>
    <text x="186" y="-12" font-family="'Tajawal','Helvetica',sans-serif" font-size="11" font-weight="600" fill="#FFFFFF" opacity="0.95" text-anchor="end">فري فاير</text>
  </g>
  <text x="14" y="22" font-family="'IBM Plex Mono','Courier New',monospace" font-size="7" fill="#FFD700" opacity="0.75" letter-spacing="1.5">NG · GIFT</text>
</svg>
