<svg xmlns="http://www.w3.org/2000/svg" viewBox="0 0 200 200" role="img" aria-label="Razer Gold">
  <defs>
    <linearGradient id="g-razer-gold" x1="0" y1="0" x2="1" y2="1">
      <stop offset="0%" stop-color="#0A0A0A"/>
      <stop offset="100%" stop-color="#0A0A0A" stop-opacity="0.85"/>
    </linearGradient>
    <pattern id="p-razer-gold" width="14" height="14" patternUnits="userSpaceOnUse">
      <circle cx="2" cy="2" r="0.7" fill="#FFD700" opacity="0.06"/>
    </pattern>
  </defs>
  <rect width="200" height="200" rx="16" fill="url(#g-razer-gold)"/>
  <rect width="200" height="200" rx="16" fill="url(#p-razer-gold)"/>
  <rect x="8" y="8" width="184" height="184" rx="12" fill="none" stroke="#FFD700" stroke-width="0.5" opacity="0.18"/>
  <g transform="translate(100 96)">
    <g fill="#FFD700" stroke="none">
      <path d="M-36 -12 q14 -8 30 -8 q10 0 18 4 l-22 18 l24 4 l-12 12 l-30 -10 z"/>
      <path d="M-36 12 q14 8 30 8 q10 0 18 -4 l-22 -18 l24 -4 l-12 -12 l-30 10 z" opacity="0.55"/>
    </g>
    <text x="0" y="34" font-family="'Chakra Petch','Helvetica',sans-serif" font-size="11" font-weight="700" fill="#FFD700" text-anchor="middle" letter-spacing="3">RAZER</text></g>
  <g transform="translate(0 200)">
    <rect x="0" y="-32" width="200" height="32" fill="#FFD700" opacity="0.06"/>
    <text x="14" y="-12" font-family="'IBM Plex Mono','Courier New',monospace" font-size="9" fill="#FFD700" opacity="0.85" letter-spacing="2">RAZER GOLD</text>
    <text x="186" y="-12" font-family="'Tajawal','Helvetica',sans-serif" font-size="11" font-weight="600" fill="#FFD700" opacity="0.95" text-anchor="end">رازر قولد</text>
  </g>
  <text x="14" y="22" font-family="'IBM Plex Mono','Courier New',monospace" font-size="7" fill="#44D62C" opacity="0.75" letter-spacing="1.5">NG · GIFT</text>
</svg>
