<svg xmlns="http://www.w3.org/2000/svg" viewBox="0 0 200 200" role="img" aria-label="هوم لاب">
  <defs>
    <linearGradient id="bg-homelab" x1="0" y1="0" x2="1" y2="1">
      <stop offset="0%" stop-color="#F8FAFC"/>
      <stop offset="100%" stop-color="#E2E8F0"/>
    </linearGradient>
    <pattern id="dots-homelab" width="12" height="12" patternUnits="userSpaceOnUse">
      <circle cx="2" cy="2" r="0.8" fill="#CBD5E1" opacity="0.7"/>
    </pattern>
  </defs>
  <rect width="200" height="200" rx="16" fill="url(#bg-homelab)"/>
  <rect width="200" height="200" rx="16" fill="url(#dots-homelab)"/>
  <rect x="8" y="8" width="184" height="184" rx="12" fill="none" stroke="#0F172A" stroke-width="0.6" opacity="0.08"/>
  <g transform="translate(100 92)">
    <g stroke="#0F172A" stroke-width="2" fill="none" stroke-linejoin="round">
      <rect x="-28" y="-28" width="56" height="14" rx="2" fill="#F1F5F9"/>
      <rect x="-28" y="-10" width="56" height="14" rx="2" fill="#F1F5F9"/>
      <rect x="-28" y="8"   width="56" height="14" rx="2" fill="#F1F5F9"/>
      <circle cx="-22" cy="-21" r="1.6" fill="#38BDF8" stroke="#38BDF8"/>
      <circle cx="-22" cy="-3"  r="1.6" fill="#38BDF8" stroke="#38BDF8"/>
      <circle cx="-22" cy="15"  r="1.6" fill="#38BDF8" stroke="#38BDF8"/>
      <line x1="-12" y1="-21" x2="22" y2="-21" stroke-opacity="0.3"/>
      <line x1="-12" y1="-3"  x2="22" y2="-3"  stroke-opacity="0.3"/>
      <line x1="-12" y1="15"  x2="22" y2="15"  stroke-opacity="0.3"/>
    </g></g>
  <g transform="translate(100 168)">
    <text x="0" y="0" font-family="'Rakkas','Tajawal',sans-serif" font-size="14" font-weight="600" fill="#0F172A" text-anchor="middle">هوم لاب</text>
  </g>
  <text x="14" y="24" font-family="'IBM Plex Mono','Courier New',monospace" font-size="7" fill="#0F172A" opacity="0.45" letter-spacing="1.5">NG · HOMELAB</text>
</svg>
