<svg xmlns="http://www.w3.org/2000/svg" viewBox="0 0 200 200" role="img" aria-label="شبكات واتصالات">
  <defs>
    <linearGradient id="bg-networking" x1="0" y1="0" x2="1" y2="1">
      <stop offset="0%" stop-color="#F8FAFC"/>
      <stop offset="100%" stop-color="#E2E8F0"/>
    </linearGradient>
    <pattern id="dots-networking" width="12" height="12" patternUnits="userSpaceOnUse">
      <circle cx="2" cy="2" r="0.8" fill="#CBD5E1" opacity="0.7"/>
    </pattern>
  </defs>
  <rect width="200" height="200" rx="16" fill="url(#bg-networking)"/>
  <rect width="200" height="200" rx="16" fill="url(#dots-networking)"/>
  <rect x="8" y="8" width="184" height="184" rx="12" fill="none" stroke="#0F172A" stroke-width="0.6" opacity="0.08"/>
  <g transform="translate(100 92)">
    <g stroke="#0F172A" stroke-width="2" fill="none" stroke-linecap="round" stroke-linejoin="round">
      <rect x="-36" y="0" width="72" height="22" rx="3" fill="#F1F5F9"/>
      <circle cx="-22" cy="11" r="2" fill="#38BDF8" stroke="#38BDF8"/>
      <circle cx="-10" cy="11" r="2" fill="#38BDF8" stroke="#38BDF8"/>
      <circle cx="2"   cy="11" r="2" fill="#38BDF8" stroke="#38BDF8"/>
      <circle cx="14"  cy="11" r="2" fill="#94A3B8" stroke="#94A3B8"/>
      <circle cx="26"  cy="11" r="2" fill="#94A3B8" stroke="#94A3B8"/>
      <path d="M-20 0 v-18 M0 0 v-12 M20 0 v-18"/>
      <circle cx="-20" cy="-22" r="3" fill="#38BDF8" stroke="#38BDF8"/>
      <circle cx="0"   cy="-16" r="3" fill="#38BDF8" stroke="#38BDF8"/>
      <circle cx="20"  cy="-22" r="3" fill="#38BDF8" stroke="#38BDF8"/>
    </g></g>
  <g transform="translate(100 168)">
    <text x="0" y="0" font-family="'Rakkas','Tajawal',sans-serif" font-size="14" font-weight="600" fill="#0F172A" text-anchor="middle">شبكات واتصالات</text>
  </g>
  <text x="14" y="24" font-family="'IBM Plex Mono','Courier New',monospace" font-size="7" fill="#0F172A" opacity="0.45" letter-spacing="1.5">NG · NETWORKING</text>
</svg>
