<svg xmlns="http://www.w3.org/2000/svg" viewBox="0 0 84 36" fill="currentColor" aria-hidden="true">
  <rect x="0.5" y="0.5" width="83" height="35" rx="4" fill="none" stroke="currentColor" stroke-opacity="0.5"/>
  <path d="M19.4 14.6c.4-.5.7-1.2.6-1.9-.6 0-1.3.4-1.7.9-.4.4-.7 1.1-.6 1.7.7.1 1.3-.3 1.7-.7zm.6.8c-1 0-1.7.5-2.2.5-.5 0-1.1-.5-1.9-.5-1 0-1.9.6-2.4 1.5-1 1.7-.3 4.3.7 5.7.5.7 1 1.4 1.8 1.4.7 0 1-.5 1.9-.5s1.1.5 1.9.5c.8 0 1.3-.7 1.8-1.4.6-.8.8-1.6.8-1.6 0 0-1.5-.6-1.5-2.3 0-1.4 1.2-2.1 1.2-2.1-.7-1-1.7-1.2-2.1-1.2z"/>
  <text x="29" y="23" font-family="-apple-system,BlinkMacSystemFont,'Segoe UI',Helvetica,Arial,sans-serif" font-size="11" font-weight="600">Pay</text>
</svg>
